<svg width="200" height="60" viewBox="0 0 200 60" xmlns="http://www.w3.org/2000/svg">
  <defs>
    <linearGradient id="logoGradient" x1="0%" y1="0%" x2="100%" y2="100%">
      <stop offset="0%" style="stop-color:#667eea;stop-opacity:1" />
      <stop offset="100%" style="stop-color:#764ba2;stop-opacity:1" />
    </linearGradient>
    <linearGradient id="shieldGradient" x1="0%" y1="0%" x2="100%" y2="100%">
      <stop offset="0%" style="stop-color:#4f46e5;stop-opacity:1" />
      <stop offset="100%" style="stop-color:#7c3aed;stop-opacity:1" />
    </linearGradient>
  </defs>
  
  <!-- Shield icon -->
  <g transform="translate(10, 10)">
    <path d="M20 5 L35 10 L35 25 Q35 35 20 40 Q5 35 5 25 L5 10 Z" fill="url(#shieldGradient)" stroke="#ffffff" stroke-width="1"/>
    <circle cx="20" cy="20" r="6" fill="#ffffff" opacity="0.9"/>
    <path d="M17 20 L19 22 L23 18" stroke="url(#shieldGradient)" stroke-width="2" fill="none" stroke-linecap="round"/>
    <!-- AI circuit pattern -->
    <path d="M12 15 L15 15 M25 15 L28 15 M12 25 L15 25 M25 25 L28 25" stroke="#ffffff" stroke-width="1" opacity="0.7"/>
    <circle cx="15" cy="15" r="1" fill="#ffffff" opacity="0.7"/>
    <circle cx="25" cy="15" r="1" fill="#ffffff" opacity="0.7"/>
    <circle cx="15" cy="25" r="1" fill="#ffffff" opacity="0.7"/>
    <circle cx="25" cy="25" r="1" fill="#ffffff" opacity="0.7"/>
  </g>
  
  <!-- Text -->
  <text x="55" y="25" font-family="Inter, Arial, sans-serif" font-size="16" font-weight="700" fill="url(#logoGradient)">Generative</text>
  <text x="55" y="42" font-family="Inter, Arial, sans-serif" font-size="16" font-weight="700" fill="url(#logoGradient)">Guardian</text>
</svg> 