<svg width="400" height="600" viewBox="0 0 400 600" xmlns="http://www.w3.org/2000/svg">
  <defs>
    <linearGradient id="bgGradient" x1="0%" y1="0%" x2="100%" y2="100%">
      <stop offset="0%" style="stop-color:#667eea;stop-opacity:1" />
      <stop offset="50%" style="stop-color:#764ba2;stop-opacity:1" />
      <stop offset="100%" style="stop-color:#f093fb;stop-opacity:1" />
    </linearGradient>
    <radialGradient id="circleGradient" cx="50%" cy="50%" r="50%">
      <stop offset="0%" style="stop-color:#ffffff;stop-opacity:0.1" />
      <stop offset="100%" style="stop-color:#ffffff;stop-opacity:0" />
    </radialGradient>
  </defs>
  
  <!-- Background -->
  <rect width="400" height="600" fill="url(#bgGradient)"/>
  
  <!-- Decorative elements -->
  <circle cx="50" cy="100" r="30" fill="url(#circleGradient)"/>
  <circle cx="350" cy="200" r="40" fill="url(#circleGradient)"/>
  <circle cx="100" cy="400" r="25" fill="url(#circleGradient)"/>
  <circle cx="300" cy="500" r="35" fill="url(#circleGradient)"/>
  
  <!-- Abstract shapes -->
  <path d="M0 300 Q200 250 400 300 L400 320 Q200 270 0 320 Z" fill="#ffffff" opacity="0.05"/>
  <path d="M0 450 Q200 400 400 450 L400 470 Q200 420 0 470 Z" fill="#ffffff" opacity="0.05"/>
  
  <!-- Tech pattern -->
  <g opacity="0.1">
    <line x1="50" y1="50" x2="80" y2="50" stroke="#ffffff" stroke-width="1"/>
    <line x1="50" y1="60" x2="70" y2="60" stroke="#ffffff" stroke-width="1"/>
    <circle cx="85" cy="55" r="2" fill="#ffffff"/>
    
    <line x1="320" y1="150" x2="350" y2="150" stroke="#ffffff" stroke-width="1"/>
    <line x1="320" y1="160" x2="340" y2="160" stroke="#ffffff" stroke-width="1"/>
    <circle cx="355" cy="155" r="2" fill="#ffffff"/>
  </g>
</svg> 