<svg width="46" height="42" viewBox="0 0 46 42" fill="none" xmlns="http://www.w3.org/2000/svg">
<path d="M40.6402 15.3633C40.1683 15.3633 39.7106 15.4272 39.2777 15.5478C37.0885 16.1439 35.4812 18.1451 35.4812 20.5223C35.4812 22.8995 37.0885 24.9007 39.2777 25.4968C39.7106 25.6174 40.1683 25.6813 40.6402 25.6813C43.4893 25.6813 45.7991 23.3714 45.7991 20.5223C45.7991 17.6732 43.4893 15.3633 40.6402 15.3633Z" fill="#7C4DFF"/>
<path d="M31.7698 10.3144C33.182 10.3144 34.4593 9.74668 35.3924 8.82772C36.3398 7.89456 36.9252 6.59595 36.9252 5.15896C36.9252 2.30982 34.6189 0 31.7698 0C29.3713 0 27.3559 1.63568 26.7776 3.85326C26.6676 4.27193 26.6108 4.70835 26.6108 5.15896C26.6108 8.0081 28.9207 10.3144 31.7698 10.3144Z" fill="#7C4DFF"/>
<path d="M31.7698 30.7302C28.9207 30.7302 26.6108 33.0365 26.6108 35.8856C26.6108 36.3362 26.6676 36.7727 26.7776 37.1913C27.3559 39.4089 29.3713 41.0446 31.7698 41.0446C34.6189 41.0446 36.9252 38.7348 36.9252 35.8856C36.9252 34.4487 36.3398 33.15 35.3924 32.2169C34.4593 31.2979 33.182 30.7302 31.7698 30.7302Z" fill="#7C4DFF"/>
<path d="M14.0292 10.3144C16.8783 10.3144 19.1882 8.0081 19.1882 5.15896C19.1882 4.70835 19.1314 4.27193 19.0214 3.85326C18.4431 1.63568 16.4277 0 14.0292 0C11.1801 0 8.87024 2.30982 8.87024 5.15896C8.87024 6.59595 9.45923 7.89456 10.4066 8.82772C11.3362 9.74668 12.6171 10.3144 14.0292 10.3144Z" fill="#7C4DFF"/>
<path d="M14.0292 30.7302C12.6171 30.7302 11.3362 31.2979 10.4066 32.2169C9.45923 33.15 8.87024 34.4487 8.87024 35.8856C8.87024 38.7348 11.1801 41.0446 14.0292 41.0446C16.4277 41.0446 18.4431 39.4089 19.0214 37.1913C19.1314 36.7727 19.1882 36.3362 19.1882 35.8856C19.1882 33.0365 16.8783 30.7302 14.0292 30.7302Z" fill="#7C4DFF"/>
<path d="M10.3179 20.5223C10.3179 18.1451 8.71063 16.1439 6.52144 15.5478C6.08857 15.4272 5.63086 15.3633 5.15896 15.3633C2.30982 15.3633 0 17.6732 0 20.5223C0 23.3714 2.30982 25.6813 5.15896 25.6813C5.63086 25.6813 6.08857 25.6174 6.52144 25.4968C8.71063 24.9007 10.3179 22.8995 10.3179 20.5223Z" fill="#7C4DFF"/>
<path d="M37.0352 26.437C35.0412 25.22 33.7071 23.0237 33.7071 20.5223C33.7071 18.0209 35.0412 15.8246 37.0352 14.6076C37.94 14.0541 38.2629 12.9009 37.7307 11.982C37.7236 11.9678 37.7165 11.9571 37.7094 11.943C37.1842 11.0346 36.0276 10.7224 35.1086 11.2298C33.9555 11.8684 32.6036 12.1842 31.1737 12.0636C28.1472 11.8081 25.5925 9.55152 24.9823 6.57465C24.8971 6.15242 24.8474 5.7302 24.8403 5.31862C24.8155 4.27547 23.9959 3.41328 22.9492 3.40973C22.9315 3.40973 22.9173 3.40973 22.8995 3.40973C22.8818 3.40973 22.8676 3.40973 22.8499 3.40973C21.8067 3.40973 20.9835 4.27192 20.9587 5.31507C20.9481 5.73375 20.9019 6.16307 20.8132 6.59239C20.1959 9.56926 17.627 11.8223 14.5969 12.0636C13.1741 12.1771 11.8329 11.8613 10.6905 11.2298C9.77149 10.7224 8.61835 11.0346 8.08968 11.943C8.08259 11.9536 8.07549 11.9678 8.06839 11.9784C7.53972 12.8974 7.8626 14.0505 8.76383 14.604C10.7579 15.821 12.092 18.0173 12.092 20.5223C12.092 23.0273 10.7579 25.2236 8.76383 26.4406C7.85906 26.9941 7.53618 28.1472 8.06839 29.0662C8.07549 29.0768 8.08259 29.091 8.08968 29.1016C8.6148 30.01 9.77149 30.3222 10.6905 29.8148C11.8365 29.1833 13.1777 28.8639 14.604 28.981C17.6341 29.2223 20.203 31.4789 20.8168 34.4558C20.9055 34.8851 20.9516 35.3109 20.9623 35.7295C20.9871 36.7727 21.8103 37.6349 22.8534 37.6349C22.8711 37.6349 22.8853 37.6349 22.9031 37.6349C22.9208 37.6349 22.935 37.6349 22.9527 37.6349C23.9959 37.6349 24.8191 36.7691 24.8439 35.726C24.8545 35.3144 24.9007 34.8957 24.9858 34.4735C25.5925 31.4966 28.1472 29.24 31.1737 28.981C32.6072 28.8604 33.9626 29.1762 35.1157 29.8148C36.0347 30.3222 37.1878 30.01 37.7165 29.1016C37.7236 29.0875 37.7307 29.0768 37.7378 29.0626C38.2664 28.1437 37.9435 26.9905 37.0423 26.437H37.0352ZM26.5257 24.1911C25.5925 25.11 24.3152 25.6777 22.9031 25.6777C20.0539 25.6777 17.7441 23.3714 17.7441 20.5223C17.7441 20.0717 17.8009 19.6353 17.9109 19.2166C18.4892 16.999 20.5045 15.3633 22.9031 15.3633C25.7522 15.3633 28.0585 17.6732 28.0585 20.5223C28.0585 21.9593 27.4731 23.2579 26.5257 24.1911Z" fill="#7C4DFF"/>
</svg>
