<svg xmlns="http://www.w3.org/2000/svg" width="24" height="25" viewBox="0 0 24 25" fill="none">
  <mask id="mask0_45_3953" style="mask-type:alpha" maskUnits="userSpaceOnUse" x="0" y="0" width="24" height="25">
    <rect y="0.75" width="24" height="24" fill="#D9D9D9" />
  </mask>
  <g mask="url(#mask0_45_3953)">
    <path
      d="M7 14.75C6.45 14.75 5.97917 14.5542 5.5875 14.1625C5.19583 13.7708 5 13.3 5 12.75C5 12.2 5.19583 11.7292 5.5875 11.3375C5.97917 10.9458 6.45 10.75 7 10.75C7.55 10.75 8.02083 10.9458 8.4125 11.3375C8.80417 11.7292 9 12.2 9 12.75C9 13.3 8.80417 13.7708 8.4125 14.1625C8.02083 14.5542 7.55 14.75 7 14.75ZM7 18.75C5.33333 18.75 3.91667 18.1667 2.75 17C1.58333 15.8333 1 14.4167 1 12.75C1 11.0833 1.58333 9.66667 2.75 8.5C3.91667 7.33333 5.33333 6.75 7 6.75C8.11667 6.75 9.12917 7.025 10.0375 7.575C10.9458 8.125 11.6667 8.85 12.2 9.75H21L24 12.75L19.5 17.25L17.5 15.75L15.5 17.25L13.375 15.75H12.2C11.6667 16.65 10.9458 17.375 10.0375 17.925C9.12917 18.475 8.11667 18.75 7 18.75ZM7 16.75C7.93333 16.75 8.75417 16.4667 9.4625 15.9C10.1708 15.3333 10.6417 14.6167 10.875 13.75H14L15.45 14.775L17.5 13.25L19.275 14.625L21.15 12.75L20.15 11.75H10.875C10.6417 10.8833 10.1708 10.1667 9.4625 9.6C8.75417 9.03333 7.93333 8.75 7 8.75C5.9 8.75 4.95833 9.14167 4.175 9.925C3.39167 10.7083 3 11.65 3 12.75C3 13.85 3.39167 14.7917 4.175 15.575C4.95833 16.3583 5.9 16.75 7 16.75Z"
      fill="#0C56D0" />
  </g>
</svg>