<svg width="224" height="80" viewBox="0 0 224 80" fill="none" xmlns="http://www.w3.org/2000/svg">
<g id="TAlogo_flat_drk (1) 1">
<g id="Group">
<path id="Vector" d="M23.2644 52.6829V31.9442H15.0673V27.3171H37.1659V31.9442H28.9866V52.6829H23.2644Z" fill="black"/>
<path id="Vector_2" d="M40.182 53.656V28.213C40.9855 28.0374 41.8464 27.8821 42.7594 27.7472C43.6725 27.6123 44.6168 27.508 45.5899 27.4316C46.563 27.3553 47.5412 27.3171 48.5273 27.3171C52.3596 27.3171 55.2422 27.9941 57.1779 29.3482C59.1136 30.7023 60.0788 32.815 60.0788 35.6861C60.0788 37.5391 59.6223 39.0892 58.7093 40.3364C57.7962 41.5836 56.4944 42.5253 54.8066 43.1591C53.1187 43.7929 51.1022 44.1085 48.7595 44.1085C48.2299 44.1085 47.7447 44.0983 47.2986 44.0831C46.8551 44.0653 46.3986 44.0449 45.929 44.022V53.6585H40.1794L40.182 53.656ZM48.8691 39.8528C50.8022 39.8528 52.2396 39.5244 53.1761 38.8677C54.1127 38.211 54.5822 37.1496 54.5822 35.6861C54.5822 34.7239 54.384 33.9374 53.9874 33.3215C53.5909 32.7055 52.9909 32.2524 52.1848 31.9597C51.3787 31.667 50.3587 31.5194 49.1221 31.5194C48.5091 31.5194 47.9456 31.5423 47.4291 31.5907C46.9125 31.639 46.4143 31.7077 45.9343 31.8019V39.7153C46.2812 39.7382 46.6099 39.7662 46.9151 39.7942C47.2204 39.8248 47.5334 39.84 47.8517 39.8477C48.1699 39.8528 48.5091 39.8553 48.8691 39.8553V39.8528ZM55.8788 53.656L47.3012 41.6294H53.5726L62.278 53.656H55.8814H55.8788Z" fill="black"/>
<path id="Vector_3" d="M75.3995 53.6585C72.8347 53.6585 70.7338 53.2541 69.0944 52.4451C67.455 51.6362 66.246 50.4101 65.4624 48.7642C64.6788 47.1183 64.287 45.0476 64.287 42.5521V27.3171H70.0559V43.1143C70.0559 45.1774 70.5018 46.6706 71.3911 47.5966C72.2804 48.5225 73.6157 48.9855 75.3969 48.9855C77.1781 48.9855 78.5108 48.5225 79.3949 47.5966C80.2791 46.6706 80.7224 45.1774 80.7224 43.1143V27.3171H86.3856V42.5521C86.3856 45.0476 85.999 47.1183 85.2283 48.7642C84.4575 50.4101 83.2563 51.6362 81.6324 52.4451C80.0058 53.2541 77.9282 53.6585 75.3995 53.6585Z" fill="black"/>
<path id="Vector_4" d="M97.5985 53.656C96.2925 53.656 94.9837 53.5606 93.6724 53.3697C92.361 53.1788 91.1503 52.91 90.0402 52.5634V47.9818C90.8085 48.2255 91.6271 48.4314 92.4934 48.5972C93.3597 48.7655 94.2287 48.8961 95.1003 48.9866C95.9719 49.0795 96.7985 49.1247 97.58 49.1247C99.3974 49.1247 100.685 48.861 101.443 48.336C102.2 47.8085 102.576 47.0725 102.576 46.1231C102.576 45.3243 102.298 44.7014 101.745 44.2493C101.188 43.7971 100.155 43.3877 98.6423 43.0185L96.5918 42.5161C94.2234 41.9484 92.4351 41.0668 91.2191 39.8712C90.0058 38.673 89.3991 37.0931 89.3991 35.1263C89.3991 32.6748 90.3343 30.7608 92.2073 29.3818C94.0803 28.0053 96.9018 27.3171 100.672 27.3171C101.89 27.3171 103.053 27.3849 104.158 27.5155C105.263 27.6486 106.24 27.832 107.096 28.0631V32.6446C106.23 32.391 105.265 32.1925 104.206 32.0544C103.143 31.9162 102.076 31.8459 101.003 31.8459C99.5881 31.8459 98.4648 31.9715 97.6356 32.2202C96.8064 32.4688 96.2103 32.818 95.85 33.2701C95.4897 33.7222 95.3096 34.2422 95.3096 34.8324C95.3096 35.5835 95.5533 36.1738 96.0408 36.6033C96.5282 37.0328 97.4449 37.4196 98.7854 37.7663L100.817 38.2686C102.574 38.673 104.02 39.208 105.154 39.8737C106.288 40.5393 107.128 41.3556 107.671 42.3202C108.214 43.2872 108.484 44.4276 108.484 45.7463C108.484 47.389 108.055 48.8032 107.194 49.9888C106.333 51.1743 105.093 52.0836 103.469 52.7141C101.845 53.3446 99.8875 53.6585 97.5959 53.6585L97.5985 53.656Z" fill="black"/>
<path id="Vector_5" d="M118.693 53.656C117.387 53.656 116.078 53.5606 114.767 53.3697C113.455 53.1788 112.244 52.91 111.134 52.5634V47.9818C111.903 48.2255 112.721 48.4314 113.588 48.5972C114.454 48.7655 115.323 48.8961 116.194 48.9866C117.066 49.0795 117.893 49.1247 118.674 49.1247C120.492 49.1247 121.779 48.861 122.537 48.336C123.294 47.8085 123.671 47.0725 123.671 46.1231C123.671 45.3243 123.392 44.7014 122.839 44.2493C122.282 43.7971 121.249 43.3877 119.737 43.0185L117.686 42.5161C115.318 41.9484 113.529 41.0668 112.313 39.8712C111.1 38.673 110.493 37.0931 110.493 35.1263C110.493 32.6748 111.428 30.7608 113.301 29.3818C115.175 28.0053 117.996 27.3171 121.766 27.3171C122.985 27.3171 124.148 27.3849 125.252 27.5155C126.357 27.6486 127.335 27.832 128.19 28.0631V32.6446C127.324 32.391 126.36 32.1925 125.3 32.0544C124.238 31.9162 123.17 31.8459 122.097 31.8459C120.682 31.8459 119.559 31.9715 118.73 32.2202C117.901 32.4688 117.305 32.818 116.944 33.2701C116.584 33.7222 116.404 34.2422 116.404 34.8324C116.404 35.5835 116.647 36.1738 117.135 36.6033C117.622 37.0328 118.539 37.4196 119.88 37.7663L121.912 38.2686C123.668 38.673 125.114 39.208 126.248 39.8737C127.382 40.5393 128.222 41.3556 128.765 42.3202C129.308 43.2872 129.578 44.4276 129.578 45.7463C129.578 47.389 129.149 48.8032 128.288 49.9888C127.427 51.1743 126.187 52.0836 124.563 52.7141C122.939 53.3446 120.982 53.6585 118.69 53.6585L118.693 53.656Z" fill="black"/>
<path id="Vector_6" d="M132.592 52.6829V27.3171H151.495V31.773H138.433V48.227H151.677V52.6829H132.592ZM136.102 41.9377V37.4818H149.639V41.9377H136.102Z" fill="black"/>
<path id="Vector_7" d="M161.999 53.6585C161.254 53.6585 160.474 53.6434 159.658 53.6156C158.843 53.5854 158.014 53.5425 157.174 53.4844C156.335 53.4264 155.506 53.3456 154.691 53.2397V28.1725C155.519 27.9984 156.403 27.847 157.347 27.7183C158.29 27.5896 159.252 27.4912 160.237 27.4231C161.222 27.3524 162.187 27.3171 163.135 27.3171C167.973 27.3171 171.624 28.3845 174.093 30.5167C176.558 32.649 177.794 35.9748 177.794 40.4966C177.794 43.5777 177.212 46.0834 176.047 48.0188C174.882 49.9542 173.131 51.3774 170.79 52.2883C168.45 53.2018 165.52 53.656 162.004 53.656L161.999 53.6585ZM163.511 49.0559C165.359 49.0559 166.899 48.7733 168.129 48.2106C169.359 47.6479 170.277 46.7344 170.884 45.4727C171.491 44.211 171.794 42.5481 171.794 40.479C171.794 38.4098 171.484 36.7621 170.866 35.5029C170.248 34.2412 169.326 33.3252 168.103 32.7474C166.878 32.172 165.361 31.8844 163.547 31.8844C163.091 31.8844 162.593 31.9071 162.054 31.955C161.514 32.0005 161.009 32.0661 160.542 32.1468V48.9348C161.035 48.9802 161.522 49.013 162.009 49.0307C162.497 49.0483 162.997 49.0559 163.513 49.0559H163.511Z" fill="black"/>
</g>
<path id="Vector_8" d="M193.896 53.656H180.385C179.458 53.656 178.603 53.174 178.14 52.3891C177.678 51.6042 177.678 50.6401 178.14 49.8552L191.116 27.8936C191.576 27.1137 192.426 26.6317 193.348 26.6266C194.268 26.614 195.125 27.0935 195.592 27.8683L203.746 41.325V28.8753C203.746 27.4771 204.906 26.3415 206.34 26.3415C207.773 26.3415 208.933 27.4746 208.933 28.8753V50.577C208.933 51.7178 208.153 52.7197 207.024 53.02C205.898 53.3229 204.705 52.8509 204.108 51.8667L193.392 34.1802L184.879 48.5908H193.901C195.332 48.5908 196.494 49.724 196.494 51.1247C196.494 52.5254 195.334 53.6585 193.901 53.6585L193.896 53.656Z" fill="#3DADFF"/>
<path id="Vector_9" d="M208.932 20C208.98 23.252 203.863 23.252 203.911 20C203.863 16.748 208.98 16.748 208.932 20Z" fill="#3DADFF"/>
</g>
</svg>
