<svg width="129" height="19" viewBox="0 0 129 19" fill="none" xmlns="http://www.w3.org/2000/svg">
<path d="M8.625 5.45455V8.72159H0.359375V5.45455H8.625ZM1.96023 2.44886H6.46875V13.9652C6.46875 14.1394 6.4987 14.2865 6.55859 14.4062C6.61849 14.5206 6.71106 14.6077 6.83629 14.6676C6.96153 14.7221 7.12216 14.7493 7.31818 14.7493C7.45431 14.7493 7.61222 14.733 7.7919 14.7003C7.97704 14.6676 8.11316 14.6404 8.20028 14.6186L8.85369 17.7876C8.65223 17.8475 8.36364 17.921 7.98793 18.0082C7.61766 18.0953 7.17661 18.1525 6.66477 18.1797C5.63021 18.2341 4.76172 18.128 4.0593 17.8612C3.35689 17.5889 2.82872 17.1615 2.47479 16.5788C2.12086 15.9962 1.94934 15.2666 1.96023 14.3899V2.44886ZM11.8448 18V5.45455H16.2226V7.83949H16.3533C16.582 6.95739 16.9441 6.31214 17.4396 5.90376C17.9405 5.49538 18.5259 5.29119 19.1956 5.29119C19.3916 5.29119 19.5849 5.30753 19.7755 5.3402C19.9715 5.36742 20.1594 5.40826 20.3391 5.46271V9.30966C20.1158 9.23343 19.8408 9.17625 19.5141 9.13814C19.1874 9.10002 18.907 9.08097 18.6729 9.08097C18.2318 9.08097 17.8343 9.1817 17.4804 9.38317C17.1319 9.57919 16.8569 9.85689 16.6555 10.2163C16.454 10.5702 16.3533 10.9867 16.3533 11.4659V18H11.8448ZM31.3324 12.5114V5.45455H35.8409V18H31.561V15.6151H31.4304C31.1581 16.4155 30.6817 17.0417 30.001 17.4936C29.3204 17.9401 28.5118 18.1634 27.5753 18.1634C26.6986 18.1634 25.9308 17.9619 25.272 17.5589C24.6186 17.156 24.1095 16.6006 23.7446 15.8928C23.3853 15.1849 23.2029 14.3736 23.1974 13.4588V5.45455H27.7059V12.5114C27.7114 13.1321 27.8693 13.6194 28.1797 13.9734C28.4955 14.3273 28.9365 14.5043 29.5028 14.5043C29.8785 14.5043 30.2025 14.4253 30.4748 14.2674C30.7525 14.104 30.9648 13.8754 31.1118 13.5813C31.2643 13.2818 31.3378 12.9252 31.3324 12.5114ZM50.9813 9.53835H46.8321C46.8103 9.28243 46.7205 9.06191 46.5626 8.87678C46.4047 8.69164 46.2005 8.55007 45.95 8.45206C45.705 8.3486 45.4327 8.29688 45.1333 8.29688C44.7467 8.29688 44.4145 8.36766 44.1368 8.50923C43.8591 8.6508 43.723 8.85227 43.7284 9.11364C43.723 9.29877 43.8019 9.47029 43.9653 9.6282C44.1341 9.7861 44.4581 9.90862 44.9372 9.99574L47.4855 10.4531C48.7706 10.6873 49.7262 11.082 50.3524 11.6374C50.984 12.1874 51.3025 12.9252 51.308 13.8509C51.3025 14.7438 51.0357 15.5198 50.5075 16.1786C49.9848 16.832 49.2688 17.3384 48.3595 17.6978C47.4556 18.0517 46.4237 18.2287 45.2639 18.2287C43.3473 18.2287 41.8471 17.8366 40.7636 17.0526C39.6855 16.2685 39.0838 15.2339 38.9585 13.9489H43.4344C43.4943 14.3464 43.6903 14.654 44.0225 14.8718C44.3601 15.0842 44.7848 15.1903 45.2966 15.1903C45.7104 15.1903 46.0507 15.1196 46.3176 14.978C46.5898 14.8364 46.7287 14.6349 46.7341 14.3736C46.7287 14.134 46.6089 13.9434 46.3747 13.8018C46.146 13.6603 45.7867 13.5459 45.2966 13.4588L43.075 13.0668C41.7954 12.8435 40.8371 12.4188 40.2 11.7926C39.5629 11.1664 39.2471 10.3606 39.2526 9.375C39.2471 8.50379 39.4758 7.76598 39.9387 7.16158C40.4069 6.55173 41.0739 6.0889 41.9397 5.77308C42.8109 5.45182 43.8428 5.29119 45.0352 5.29119C46.8485 5.29119 48.2778 5.6669 49.3232 6.41832C50.3741 7.16974 50.9268 8.20975 50.9813 9.53835ZM65.8828 9.53835H61.7336C61.7118 9.28243 61.622 9.06191 61.4641 8.87678C61.3062 8.69164 61.102 8.55007 60.8515 8.45206C60.6065 8.3486 60.3342 8.29688 60.0347 8.29688C59.6481 8.29688 59.316 8.36766 59.0383 8.50923C58.7606 8.6508 58.6245 8.85227 58.6299 9.11364C58.6245 9.29877 58.7034 9.47029 58.8668 9.6282C59.0356 9.7861 59.3595 9.90862 59.8387 9.99574L62.387 10.4531C63.672 10.6873 64.6277 11.082 65.2538 11.6374C65.8855 12.1874 66.204 12.9252 66.2095 13.8509C66.204 14.7438 65.9372 15.5198 65.409 16.1786C64.8863 16.832 64.1703 17.3384 63.2609 17.6978C62.3571 18.0517 61.3252 18.2287 60.1654 18.2287C58.2488 18.2287 56.7486 17.8366 55.6651 17.0526C54.5869 16.2685 53.9853 15.2339 53.86 13.9489H58.3359C58.3958 14.3464 58.5918 14.654 58.9239 14.8718C59.2615 15.0842 59.6863 15.1903 60.1981 15.1903C60.6119 15.1903 60.9522 15.1196 61.219 14.978C61.4913 14.8364 61.6301 14.6349 61.6356 14.3736C61.6301 14.134 61.5104 13.9434 61.2762 13.8018C61.0475 13.6603 60.6881 13.5459 60.1981 13.4588L57.9765 13.0668C56.6969 12.8435 55.7386 12.4188 55.1015 11.7926C54.4644 11.1664 54.1486 10.3606 54.1541 9.375C54.1486 8.50379 54.3773 7.76598 54.8401 7.16158C55.3084 6.55173 55.9754 6.0889 56.8412 5.77308C57.7124 5.45182 58.7443 5.29119 59.9367 5.29119C61.7499 5.29119 63.1793 5.6669 64.2247 6.41832C65.2756 7.16974 65.8283 8.20975 65.8828 9.53835ZM75.3283 18.2287C73.9888 18.2287 72.8344 17.9728 71.8652 17.4609C70.9014 16.9437 70.1582 16.2031 69.6354 15.2393C69.1182 14.2701 68.8595 13.1103 68.8595 11.7599C68.8595 10.464 69.1209 9.33144 69.6436 8.36222C70.1663 7.39299 70.9041 6.63885 71.857 6.09979C72.8099 5.56072 73.9343 5.29119 75.2303 5.29119C76.1777 5.29119 77.0353 5.43821 77.8031 5.73224C78.5708 6.02628 79.2269 6.45372 79.7715 7.01456C80.316 7.56996 80.7352 8.24515 81.0293 9.04013C81.3233 9.83511 81.4703 10.7308 81.4703 11.7273V12.7727H70.2643V10.2898H77.3212C77.3157 9.9304 77.2232 9.61458 77.0435 9.34233C76.8692 9.06463 76.6324 8.84955 76.3329 8.69709C76.0389 8.53918 75.704 8.46023 75.3283 8.46023C74.9634 8.46023 74.6286 8.53918 74.3237 8.69709C74.0187 8.84955 73.7737 9.06191 73.5886 9.33416C73.4089 9.60642 73.3136 9.92495 73.3027 10.2898V12.9688C73.3027 13.3717 73.3871 13.7311 73.5559 14.0469C73.7247 14.3627 73.967 14.6104 74.2828 14.7901C74.5986 14.9698 74.9798 15.0597 75.4263 15.0597C75.7366 15.0597 76.0198 15.0161 76.2757 14.929C76.5371 14.8419 76.7603 14.7166 76.9455 14.5533C77.1306 14.3845 77.2667 14.183 77.3538 13.9489H81.4703C81.3287 14.8201 80.9939 15.5769 80.4657 16.2195C79.9375 16.8565 79.2378 17.352 78.3666 17.706C77.5009 18.0545 76.4881 18.2287 75.3283 18.2287ZM89.2313 18.1634C88.3383 18.1634 87.5161 17.9292 86.7646 17.4609C86.0187 16.9927 85.4197 16.2821 84.9678 15.3292C84.5213 14.3763 84.298 13.1757 84.298 11.7273C84.298 10.2135 84.5322 8.98295 85.0004 8.03551C85.4742 7.08807 86.084 6.39382 86.83 5.95277C87.5814 5.51172 88.3709 5.29119 89.1986 5.29119C89.8193 5.29119 90.3638 5.40009 90.8321 5.6179C91.3004 5.83025 91.6924 6.11612 92.0082 6.4755C92.3241 6.82943 92.5636 7.21875 92.727 7.64347H92.7923V1.27273H97.3009V18H92.825V15.9418H92.727C92.5528 16.3665 92.3023 16.7476 91.9756 17.0852C91.6543 17.4174 91.2623 17.6815 90.7994 17.8775C90.3421 18.0681 89.8193 18.1634 89.2313 18.1634ZM90.8975 14.7003C91.3113 14.7003 91.6652 14.5805 91.9592 14.3409C92.2587 14.0959 92.4874 13.7528 92.6453 13.3118C92.8087 12.8653 92.8904 12.3371 92.8904 11.7273C92.8904 11.1065 92.8087 10.5756 92.6453 10.1346C92.4874 9.68809 92.2587 9.34777 91.9592 9.11364C91.6652 8.87405 91.3113 8.75426 90.8975 8.75426C90.4836 8.75426 90.1297 8.87405 89.8357 9.11364C89.5471 9.34777 89.3238 9.68809 89.1659 10.1346C89.0135 10.5756 88.9372 11.1065 88.9372 11.7273C88.9372 12.348 89.0135 12.8816 89.1659 13.3281C89.3238 13.7692 89.5471 14.1095 89.8357 14.3491C90.1297 14.5832 90.4836 14.7003 90.8975 14.7003Z" fill="#212121"/>
<path d="M103.345 18.2614C102.713 18.2614 102.171 18.0408 101.719 17.5998C101.273 17.1533 101.052 16.6115 101.058 15.9744C101.052 15.3537 101.273 14.8228 101.719 14.3817C102.171 13.9407 102.713 13.7202 103.345 13.7202C103.944 13.7202 104.472 13.9407 104.929 14.3817C105.392 14.8228 105.626 15.3537 105.632 15.9744C105.626 16.3991 105.514 16.7857 105.297 17.1342C105.084 17.4773 104.807 17.7522 104.464 17.9592C104.12 18.1606 103.748 18.2614 103.345 18.2614ZM112.958 18.196C112.157 18.196 111.449 18.0653 110.834 17.804C110.224 17.5372 109.745 17.1342 109.396 16.5952C109.048 16.0561 108.874 15.37 108.874 14.5369C108.874 13.8509 108.991 13.2655 109.225 12.7809C109.459 12.2908 109.786 11.8906 110.205 11.5803C110.624 11.2699 111.112 11.033 111.667 10.8697C112.228 10.7063 112.832 10.6001 113.48 10.5511C114.183 10.4967 114.746 10.4313 115.171 10.3551C115.601 10.2734 115.911 10.1618 116.102 10.0202C116.293 9.87322 116.388 9.67992 116.388 9.44034V9.40767C116.388 9.08097 116.263 8.83049 116.012 8.65625C115.762 8.48201 115.44 8.39489 115.048 8.39489C114.618 8.39489 114.267 8.49017 113.995 8.68075C113.728 8.86589 113.567 9.15175 113.513 9.53835H109.364C109.418 8.77604 109.661 8.07363 110.091 7.43111C110.526 6.78314 111.161 6.26586 111.994 5.87926C112.827 5.48722 113.867 5.29119 115.114 5.29119C116.012 5.29119 116.818 5.39737 117.531 5.60973C118.245 5.81664 118.852 6.10795 119.353 6.48366C119.854 6.85393 120.235 7.28954 120.496 7.79048C120.763 8.28598 120.896 8.82505 120.896 9.40767V18H116.682V16.2358H116.584C116.333 16.7041 116.029 17.0825 115.669 17.3711C115.315 17.6597 114.91 17.8693 114.452 18C114 18.1307 113.502 18.196 112.958 18.196ZM114.428 15.3537C114.771 15.3537 115.092 15.2829 115.391 15.1413C115.696 14.9998 115.944 14.7956 116.135 14.5288C116.325 14.262 116.421 13.938 116.421 13.5568V12.5114C116.301 12.5604 116.173 12.6067 116.037 12.6502C115.906 12.6938 115.764 12.7346 115.612 12.7727C115.465 12.8108 115.307 12.8462 115.138 12.8789C114.975 12.9116 114.803 12.9415 114.624 12.9688C114.275 13.0232 113.989 13.113 113.766 13.2383C113.548 13.3581 113.385 13.5078 113.276 13.6875C113.173 13.8617 113.121 14.0578 113.121 14.2756C113.121 14.6241 113.243 14.8909 113.488 15.076C113.733 15.2611 114.047 15.3537 114.428 15.3537ZM124.431 18V5.45455H128.939V18H124.431ZM126.685 4.14773C126.075 4.14773 125.552 3.94626 125.117 3.54332C124.681 3.14039 124.463 2.65578 124.463 2.08949C124.463 1.5232 124.681 1.03859 125.117 0.635653C125.552 0.232718 126.075 0.03125 126.685 0.03125C127.3 0.03125 127.823 0.232718 128.253 0.635653C128.689 1.03859 128.907 1.5232 128.907 2.08949C128.907 2.65578 128.689 3.14039 128.253 3.54332C127.823 3.94626 127.3 4.14773 126.685 4.14773Z" fill="#7C4DFF"/>
</svg>
